inDegrees=no
num_controls=7
num_derivatives=13
num_iterations=124
num_multipliers=7
num_parameters=0
num_slacks=7
num_states=26
objective=0.497132
objective_accelerations=0.042302
objective_balance=0.003562
objective_effort=0.039732
objective_height=0.405708
objective_ligament=0.005828
solver_duration=1435.449602
status=Solve_Succeeded
success=true
DataType=double
version=3
OpenSimVersion=4.5
endheader
time	/jointset/ground_pelvis/pelvis_tilt/value	/jointset/ground_pelvis/pelvis_tx/value	/jointset/ground_pelvis/pelvis_ty/value	/jointset/hip_r/hip_flexion_r/value	/jointset/hip_r/hip_adduction_r/value	/jointset/hip_r/hip_rotation_r/value	/jointset/back/lumbar_extension/value	/jointset/patellofemoral_r/patellar_flexion_r/value	/jointset/knee_r/knee_flexion_r/value	/jointset/knee_r/knee_adduction_r/value	/jointset/knee_r/knee_rotation_r/value	/jointset/ankle_r/ankle_angle_r/value	/jointset/subtalar_r/subtalar_angle_r/value	/jointset/ground_pelvis/pelvis_tilt/speed	/jointset/ground_pelvis/pelvis_tx/speed	/jointset/ground_pelvis/pelvis_ty/speed	/jointset/hip_r/hip_flexion_r/speed	/jointset/hip_r/hip_adduction_r/speed	/jointset/hip_r/hip_rotation_r/speed	/jointset/back/lumbar_extension/speed	/jointset/patellofemoral_r/patellar_flexion_r/speed	/jointset/knee_r/knee_flexion_r/speed	/jointset/knee_r/knee_adduction_r/speed	/jointset/knee_r/knee_rotation_r/speed	/jointset/ankle_r/ankle_angle_r/speed	/jointset/subtalar_r/subtalar_angle_r/speed	/forceset/tau_hip_flexion_r	/forceset/tau_hip_adduction_r	/forceset/tau_hip_rotation_r	/forceset/tau_knee_flexion_r	/forceset/tau_ankle_angle_r	/forceset/tau_subtalar_angle_r	/forceset/tau_lumbar_extension	lambda_cid13_p0	lambda_cid14_p0	lambda_cid14_p1	lambda_cid14_p2	lambda_cid14_p3	lambda_cid14_p4	lambda_cid14_p5	/jointset/ground_pelvis/pelvis_tilt/accel	/jointset/ground_pelvis/pelvis_tx/accel	/jointset/ground_pelvis/pelvis_ty/accel	/jointset/hip_r/hip_flexion_r/accel	/jointset/hip_r/hip_adduction_r/accel	/jointset/hip_r/hip_rotation_r/accel	/jointset/back/lumbar_extension/accel	/jointset/patellofemoral_r/patellar_flexion_r/accel	/jointset/knee_r/knee_flexion_r/accel	/jointset/knee_r/knee_adduction_r/accel	/jointset/knee_r/knee_rotation_r/accel	/jointset/ankle_r/ankle_angle_r/accel	/jointset/subtalar_r/subtalar_angle_r/accel	gamma_cid13_p0	gamma_cid14_p0	gamma_cid14_p1	gamma_cid14_p2	gamma_cid14_p3	gamma_cid14_p4	gamma_cid14_p5
1	-0.2476871525135817	0.01204338305258558	0.6964086719970123	1.311220124276029	-0.2478729723783465	0.01241289344751103	-0.4363171756552529	1.306536351122595	1.306536351123077	0.0289916444029457	0.1745304863579206	0.436319903491367	0.08208531959998398	0.0007668788315938761	0.004421727256763633	0.01502926186058316	-0.04213082280325546	0.0001418673989164445	-0.01223234573122829	0.00214954495689164	-0.04786779996472952	-0.04786779996473043	0.0004329385669008532	-4.966526311418251e-05	-0.00835058653567281	-0.002418954046804794	-0.244707959200783	0.01965477514746047	0.01935820544818048	-0.4937597129112636	-0.003825774054098128	-0.0007044479694857676	0.2760643794479437	-0.04833521735511512	-50.04413933378147	-9.794678711608103	2.851197989289883	16.34407776763954	-792.0675625578108	57.91034673083066	1.15034967869769	0.09735749109307572	1.590645535767587	-4.930536828750848	0.009529434655785268	-1.115959274491248	0.1946331320840572	-4.97316354380071	-4.973163543800697	0.2169374197704586	0.007940744468076306	-1.417383325889333	-0.457630750921571	4.662829157839442e-10	-4.006626857001162e-09	6.661280246078311e-09	4.164745700337189e-09	8.046919452167087e-09	-4.826516730753813e-09	4.357802450039341e-09
1.01	-0.247623112849574	0.01209254252138256	0.6966383385264588	1.31055352113922	-0.2478709799115145	0.01223522269000706	-0.4362837699226967	1.305809122041452	1.30580912204151	0.02900706480415504	0.174530043091119	0.4361655836088241	0.08203842819356899	0.0119921312559245	0.005420238293048144	0.03090173558644179	-0.09115856162527514	0.0002572198669912155	-0.02330151292876845	0.004675170650398131	-0.0975955500964112	-0.09759555009640589	0.002656053888458696	-3.897044433300359e-05	-0.02251362200692558	-0.006957312274160488	-0.2455575116140009	0.01986590904722051	0.0193616516053496	-0.4930080219499319	-0.004747365067796813	-0.0006202193248752761	0.2768992919241798	-0.0493839998729682	-50.35377271921332	-9.807189380839485	2.847340317097677	16.42942440478719	-792.4625581558322	57.83465919528156	1.10127507914507	0.1026097863543731	1.585200371413239	-4.884205722889297	0.01262897846920653	-1.10235235616627	0.3030626521433864	-4.975211003293079	-4.975211003292165	0.2257372837065753	-0.00236122049517543	-1.4157996090298	-0.4516324926444586	8.984538007169987e-10	-3.191532337051172e-09	1.735418976737464e-08	6.553245194155928e-09	5.564587935136367e-09	-8.231805539158346e-09	1.631479916746403e-08
1.02	-0.2474482882503534	0.01215198947583401	0.6970266602092474	1.309397577951397	-0.2478678157548846	0.01194686887777138	-0.4362208008603644	1.304584089407904	1.304584089407539	0.02904486409765234	0.1745297077582888	0.4358696261813091	0.08194621437808008	0.02292386587402669	0.006479224387657401	0.04676029252902591	-0.1399988330057675	0.0003762053585010302	-0.03436895667754363	0.008062210910281319	-0.1474285104457404	-0.147428510445729	0.004908717024341792	-2.807846868360577e-05	-0.03667809552964041	-0.01148343586159235	-0.2464070640272293	0.02007704294697964	0.01936509776251339	-0.4922563309886011	-0.005668956081494515	-0.00053599068026586	0.2777342044004063	-0.0514977996604891	-50.67399818440604	-9.819200522515853	2.840714167398364	16.5361765653747	-793.0275429638785	57.76824813522398	1.091646117452007	0.1094525027580226	1.587862179112683	-4.893043340445389	0.01025603934279123	-1.115614584738254	0.3669160453593576	-4.99420558733022	-4.994205587330229	0.2228469826355104	0.007980175841727685	-1.417670936181748	-0.4551838229368103	1.118098546263375e-09	-3.020227163849632e-09	2.548256771336377e-08	9.507299126566923e-09	4.606096636695766e-09	-1.017677991308842e-08	2.350451965675127e-08
1.03	-0.2471655144839812	0.01222236031595086	0.6975734224247696	1.307754199623001	-0.247863431952053	0.01154789005271851	-0.436119735875	1.302860370888371	1.302860370888099	0.0291053232514291	0.1745294810797512	0.4354320693697647	0.08180885192274831	0.03358911029656095	0.007608226776613413	0.06258193534745954	-0.1886394868212058	0.0005026018942988811	-0.04542150410555259	0.01228992316145516	-0.1973156014051592	-0.1973156014051539	0.007186999467003212	-1.828659560989198e-05	-0.05082830113312089	-0.01598147225883653	-0.2469526487416144	0.02018901421773707	0.01938000652923144	-0.4911898173555149	-0.006345313386277494	-0.0004473490261127045	0.278324853798651	-0.05519968301523055	-50.88337267286837	-9.801044093236216	2.819178882361241	16.539879906159	-793.1012445086998	57.71975107448512	1.047697597673072	0.1166173050008139	1.577780615942144	-4.843974238779401	0.01414171474953166	-1.099280825017954	0.4715693647591227	-4.986022310313534	-4.986022310314438	0.2309053498189418	-0.002671348718410012	-1.412952198574824	-0.4459691924496922	1.335574657734375e-09	-2.85549126969655e-09	3.358477696980893e-08	1.246712402263703e-08	3.663154728240789e-09	-1.210685311931976e-08	3.064559447024117e-08
1.04	-0.2467773414747794	0.01230441981956454	0.698278094125023	1.305625535189113	-0.2478577221330532	0.01103854455274818	-0.4359722196571692	1.30063776916723	1.300637769167052	0.02918868252458007	0.1745293223115923	0.4348531591369564	0.0816267379745778	0.04400371443985179	0.008816957087022697	0.07834218947522797	-0.2370560541040991	0.0006414085921466914	-0.05644229166099139	0.0173524574031376	-0.2472051507672111	-0.2472051507672118	0.009488740899164249	-1.449639287964664e-05	-0.06494877978234651	-0.02043373442934004	-0.2474982334560046	0.02030098548849328	0.01939491529594932	-0.4901233037224291	-0.007021670691060236	-0.0003587073719615042	0.2789155031968912	-0.06123877727742803	-51.10334107823297	-9.782285671771533	2.794741382915839	16.56393993478584	-793.3455052867931	57.68095844922065	1.041518061603325	0.1253980870486714	1.575584440979643	-4.848226033936361	0.01273807175278073	-1.109262610224224	0.5338804434610668	-4.994697267856838	-4.994697267856846	0.2275387805354352	0.006779841773040765	-1.411725545330783	-0.4460289775886832	1.63781964381459e-09	-2.625538759865394e-09	4.048127947663657e-08	1.521724004538418e-08	2.76690945339031e-09	-1.42580186719461e-08	3.713266643579609e-08
1.05	-0.2462862137175404	0.01239896508002684	0.6991399972136081	1.303013892185492	-0.24785055393848	0.01041915718425164	-0.4357700535722468	1.297916348647215	1.297916348647398	0.02929515911504469	0.1745291891161186	0.4341331574534125	0.08140034477832456	0.05418342230767087	0.01010539798161145	0.09402140280350817	-0.2852253796228917	0.000796101722905757	-0.06742666646642473	0.02320870853859705	-0.2970701514803534	-0.2970701514803472	0.01180945793312648	-1.437259781434909e-05	-0.079049825414561	-0.0248341530450494	-0.2476891053879828	0.0204045758510079	0.01941941464222189	-0.4887755104640492	-0.007494150877444451	-0.0003107766621055512	0.2792012254414166	-0.0705714281002052	-51.23174869354686	-9.766180163805236	2.771873243644175	16.54545214973386	-793.1148724245006	57.59761616860465	1.000435597455192	0.1325629024582815	1.561532657988176	-4.794210448331686	0.01742019816615007	-1.091749749743234	0.6306897921505938	-4.981081601327735	-4.981081601326697	0.2347752995458849	-0.00369960085197057	-1.409036426912499	-0.4354257828479863	1.942713657226343e-09	-2.393548230794299e-09	4.734010364753865e-08	1.796080266584e-08	1.872123448339971e-09	-1.641609336039729e-08	4.359930081235303e-08
1.06	-0.245694441192006	0.01250679391179389	0.7001581810113232	1.299921970999188	-0.2478417217597135	0.009690181100892665	-0.4355054865072565	1.294696542094411	1.294696542094955	0.02942493030279276	0.1745289915087506	0.4332721968425971	0.08113027190005703	0.06413266809884921	0.01147367134796962	0.1095983313012247	-0.3331116906409242	0.0009742054308120267	-0.07836003463347214	0.02983265341654468	-0.3468823573248882	-0.346882357324875	0.01414766035585969	-2.737877175829989e-05	-0.09314056523660431	-0.02916967083219615	-0.2478799773199621	0.02050816621352178	0.01944391398849469	-0.4874277172056692	-0.007966631063828737	-0.0002628459522508525	0.2794869476859413	-0.08437034367075937	-51.37067200548481	-9.749239185188598	2.745814631246876	16.54582996009242	-793.0542837056183	57.52484365753606	0.9954256462751859	0.1413645814025506	1.555127474866913	-4.791623133784344	0.01742018718221909	-1.099061282547037	0.6874191919586984	-4.984138294135321	-4.984138294135326	0.2310358582896325	0.004153847971198251	-1.409664383296559	-0.4330488118761696	2.187761247749407e-09	-2.310869323191234e-09	5.120029462575594e-08	1.989307948148659e-08	1.535558124009032e-09	-1.841563047621438e-08	4.684220343324737e-08
1.07	-0.2450042852760435	0.01262871574874722	0.7013315550641946	1.296352677257011	-0.2478309952751585	0.008852121189195435	-0.4351709493085771	1.290978980176356	1.290978980176668	0.02957815849475255	0.1745286435249036	0.4322703662526836	0.08081716870539199	0.07386128720366376	0.01292511556067528	0.1250522397936688	-0.3806887711178297	0.001176042173934855	-0.08923967974587742	0.03719604562026608	-0.3966104886084593	-0.3966104886084498	0.01650126904323252	-4.44997914085442e-05	-0.1072247524441481	-0.03343766380358482	-0.2477020364485426	0.02049526645413574	0.01947879075587945	-0.4858339262384401	-0.008184211127973311	-0.0002083133749444733	0.2794607659952014	-0.1040133948601359	-51.39808743943711	-9.700225444797656	2.703584156425702	16.47328629583756	-792.5186253061663	57.48422688966317	0.9559965973795547	0.1491975102790229	1.536882505014959	-4.732007177050074	0.0223135140784382	-1.080578381671258	0.7789881297079239	-4.964220383172379	-4.964220383172936	0.2380229005457094	-0.004979987995506403	-1.407678162542831	-0.4216675059590024	2.429625517906051e-09	-2.236132523113066e-09	5.490098383840487e-08	2.178220279687736e-08	1.228685389078065e-09	-2.040673474242327e-08	4.991363096075539e-08
